name pl02_filtered_grf.mot
datacolumns 37
datarows 6
range 1.491500 1.494000
endheader
time	1_ground_force_vx	1_ground_force_vy	1_ground_force_vz	1_ground_force_px	1_ground_force_py	1_ground_force_pz	1_ground_torque_x	1_ground_torque_y	1_ground_torque_z	2_ground_force_vx	2_ground_force_vy	2_ground_force_vz	2_ground_force_px	2_ground_force_py	2_ground_force_pz	2_ground_torque_x	2_ground_torque_y	2_ground_torque_z	3_ground_force_vx	3_ground_force_vy	3_ground_force_vz	3_ground_force_px	3_ground_force_py	3_ground_force_pz	3_ground_torque_x	3_ground_torque_y	3_ground_torque_z	4_ground_force_vx	4_ground_force_vy	4_ground_force_vz	4_ground_force_px	4_ground_force_py	4_ground_force_pz	4_ground_torque_x	4_ground_torque_y	4_ground_torque_z
            1.491500	           -3.969549	          382.291820	           16.146682	            0.134620	            0.000000	            0.261107	           -0.071945	            6.928735	            0.292646	           15.409365	          436.334962	           15.556641	           -0.116606	            0.000000	            0.262119	           -0.023304	           -0.659877	           -0.023527	           21.023146	            0.781437	            0.528413	            0.375083	            1.311127	            1.913328	           -0.101504	           -0.003773	           -0.002551	          -18.913905	           -0.081225	            1.581501	           -0.265732	            1.310133	            1.923993	           -0.000033	           -0.000000	            0.000003
            1.492000	           -3.939606	          382.432890	           16.121414	            0.134616	            0.000000	            0.261098	           -0.071441	            6.935022	            0.292345	           15.443726	          436.624720	           15.508118	           -0.116604	            0.000000	            0.262122	           -0.023350	           -0.660153	           -0.023447	           21.018037	            0.807853	            0.517167	            0.375080	            1.311130	            1.913327	           -0.101569	           -0.003904	           -0.002499	          -18.935519	           -0.081496	            1.582940	           -0.265733	            1.310133	            1.923992	            0.000140	            0.000001	           -0.000012
            1.492500	           -3.910885	          382.575774	           16.093010	            0.134611	            0.000000	            0.261090	           -0.070955	            6.941050	            0.291975	           15.478694	          436.921319	           15.455523	           -0.116603	            0.000000	            0.262127	           -0.023393	           -0.660333	           -0.023358	           21.016064	            0.835013	            0.506266	            0.375078	            1.311133	            1.913326	           -0.101649	           -0.004039	           -0.002449	          -18.956547	           -0.082937	            1.583845	           -0.265733	            1.310133	            1.923992	            0.000313	            0.000001	           -0.000026
            1.493000	           -3.883436	          382.720486	           16.061581	            0.134607	            0.000000	            0.261083	           -0.070489	            6.946813	            0.291536	           15.514207	          437.225086	           15.399123	           -0.116603	            0.000000	            0.262134	           -0.023433	           -0.660404	           -0.023260	           21.017205	            0.862848	            0.495779	            0.375077	            1.311136	            1.913325	           -0.101744	           -0.004177	           -0.002400	          -18.976853	           -0.085541	            1.584188	           -0.265734	            1.310133	            1.923992	            0.000487	            0.000002	           -0.000041
            1.493500	           -3.857308	          382.867039	           16.027232	            0.134602	            0.000000	            0.261077	           -0.070043	            6.952306	            0.291031	           15.550204	          437.536328	           15.339187	           -0.116603	            0.000000	            0.262142	           -0.023469	           -0.660354	           -0.023151	           21.021421	            0.891281	            0.485740	            0.375075	            1.311138	            1.913325	           -0.101852	           -0.004318	           -0.002353	          -18.996318	           -0.089304	            1.583749	           -0.265734	            1.310133	            1.923991	            0.000660	            0.000003	           -0.000055
            1.494000	           -3.832546	          383.015439	           15.990065	            0.134596	            0.000000	            0.261072	           -0.069619	            6.957525	            0.290462	           15.586628	          437.855329	           15.275986	           -0.116604	            0.000000	            0.262153	           -0.023501	           -0.660171	           -0.023032	           21.028659	            0.920228	            0.476199	            0.375073	            1.311141	            1.913324	           -0.101973	           -0.004462	           -0.002309	          -19.014820	           -0.094214	            1.582405	           -0.265735	            1.310134	            1.923991	            0.000834	            0.000004	           -0.000069
